<svg width="662" height="896" viewBox="0 0 662 896" fill="none" xmlns="http://www.w3.org/2000/svg">
<path d="M500.91 432.64V846.93C500.91 873.81 479.15 895.57 452.27 895.57H208.64C181.76 895.57 160 873.81 160 846.93V432.64C160 405.76 181.76 384 208.64 384L452.7 384.42C479.58 384.42 501.34 405.76 500.91 432.64ZM661.34 136.96L601.18 197.12C532.06 128 436.06 85.33 330.67 85.33C225.28 85.33 129.28 128 60.16 197.12L0 136.96C84.91 52.48 201.82 0 330.67 0C459.52 0 576.43 52.48 661.34 136.96ZM458.67 469.33H202.67V810.66H458.67V469.33ZM330.67 170.66C413.87 170.66 489.39 204.37 544 258.98L482.99 320C444.16 281.17 389.98 256.85 330.67 256.85C271.36 256.85 217.18 281.17 178.35 320L117.34 258.98C171.95 204.37 247.47 170.66 330.67 170.66Z" fill="#2E8B57"/>
</svg>
