<svg width="854" height="768" viewBox="0 0 854 768" fill="none" xmlns="http://www.w3.org/2000/svg">
<path d="M853.34 256V384C853.34 430.93 814.93 469.33 768 469.33H512V384H341.34V469.33H85.34C37.98 469.33 0 431.36 0 384V256C0 209.07 38.41 170.67 85.34 170.67H255.58V85.33L340.91 0H511.58L596.91 85.33V170.67H768C814.93 170.67 853.34 209.07 853.34 256ZM512 554.67V512H810.67V682.67C810.67 730.03 772.7 768 725.34 768H128C80.64 768 42.67 730.03 42.67 682.67L43.1 512H341.34V554.67H512ZM512 85.33H341.34V170.67H512V85.33Z" fill="#2E8B57"/>
</svg>
