<svg width="1021" height="996" viewBox="0 0 1021 996" fill="none" xmlns="http://www.w3.org/2000/svg">
<ellipse cx="510.5" cy="498" rx="510.5" ry="498" fill="white"/>
<path d="M414.963 197.625L590.006 298.698C594.862 301.473 601.034 299.799 603.833 294.99L608.881 286.235C611.68 281.426 610.005 275.23 605.197 272.431L430.13 171.358C425.298 168.559 419.102 170.233 416.327 175.042L411.279 183.797C408.48 188.63 410.131 194.826 414.963 197.625Z" fill="black"/>
<path d="M263.365 460.224L438.431 561.322C443.264 564.097 449.46 562.446 452.235 557.638L457.282 548.906C460.081 544.097 458.431 537.878 453.598 535.103L278.532 434.029C273.699 431.23 267.503 432.905 264.728 437.713L259.681 446.469C256.858 451.229 258.508 457.425 263.365 460.224Z" fill="black"/>
<path d="M880.691 583.738L530.318 402.14L577.422 320.564C580.197 315.755 578.547 309.536 573.762 306.76L416.159 215.782C411.351 213.007 405.131 214.682 402.356 219.49L291.163 412.068C288.412 416.877 290.063 423.097 294.871 425.872L452.45 516.826C457.258 519.625 463.478 517.95 466.229 513.142L513.357 431.565L845.788 644.215C850.476 647.205 856.577 645.722 859.352 640.889L884.638 597.111C887.389 592.35 885.619 586.322 880.691 583.738Z" fill="black"/>
<path d="M935.952 609.311L918.465 599.216C913.68 596.417 907.436 598.091 904.661 602.9L874.303 655.41C871.552 660.219 873.203 666.438 878.011 669.189L895.499 679.285C900.307 682.084 906.503 680.433 909.302 675.601L939.636 623.09C942.435 618.282 940.785 612.062 935.952 609.311Z" fill="black"/>
<path d="M557.686 671.63H536.61C539.266 668.663 541.036 664.836 541.036 660.529V643.879C541.036 634.717 533.548 627.205 524.386 627.205H190.999C181.812 627.205 174.324 634.717 174.324 643.879V660.529C174.324 664.836 176.095 668.663 178.774 671.63H157.674C148.464 671.63 141 679.165 141 688.328V755C141 764.163 148.488 771.674 157.674 771.674H557.734C566.944 771.674 574.384 764.163 574.384 755V688.28C574.384 679.165 566.896 671.63 557.686 671.63ZM533.979 748.685H182.913C173.272 748.685 165.377 740.79 165.377 731.173V713.614C165.401 703.997 173.272 696.055 182.913 696.103H533.979C543.667 696.103 551.562 703.997 551.538 713.59L551.562 731.173C551.538 740.79 543.667 748.685 533.979 748.685Z" fill="black"/>
</svg>
